<svg width="22" height="25" viewBox="0 0 22 25" fill="none" xmlns="http://www.w3.org/2000/svg">
<path d="M4.18644 0.00633938C3.77214 0.0726267 3.40115 0.300777 3.15507 0.640601C2.90899 0.980424 2.80798 1.40408 2.87427 1.81838C2.94056 2.23268 3.16871 2.60367 3.50853 2.84975C3.84836 3.09583 4.27202 3.19683 4.68631 3.13055H6.24841V9.37896H3.12421C1.40589 9.37896 0 10.7849 0 12.5032H9.37262V21.8758L10.7473 25L12.4968 21.8758V12.5032H21.8695C21.8695 10.7849 20.4636 9.37896 18.7452 9.37896H15.621V3.13055H17.1831C17.5974 3.13055 17.9948 2.96597 18.2877 2.67302C18.5807 2.38007 18.7452 1.98274 18.7452 1.56844C18.7452 1.15415 18.5807 0.75682 18.2877 0.463869C17.9948 0.170918 17.5974 0.00633938 17.1831 0.00633938H4.68631C4.59278 -0.00211313 4.49867 -0.00211313 4.40513 0.00633938C4.3427 0.00258695 4.28011 0.00258695 4.21768 0.00633938L4.18644 0.00633938Z" fill="#F29A49"/>
</svg>
